<?xml version="1.0" standalone="no"?>
<!DOCTYPE svg PUBLIC "-//W3C//DTD SVG 20010904//EN"
 "http://www.w3.org/TR/2001/REC-SVG-20010904/DTD/svg10.dtd">
<svg version="1.0" xmlns="http://www.w3.org/2000/svg"
 width="1182.000000pt" height="1182.000000pt" viewBox="0 0 1182.000000 1182.000000"
 preserveAspectRatio="xMidYMid meet">
<metadata>
Created by potrace 1.11, written by Peter Selinger 2001-2013
</metadata>
<g transform="translate(0.000000,1182.000000) scale(0.100000,-0.100000)"
fill="#000000" stroke="none">
<path d="M1580 8311 c-19 -10 -44 -34 -55 -52 -20 -34 -20 -52 -20 -2344 0
-2284 0 -2310 20 -2343 11 -18 38 -41 60 -52 39 -19 63 -20 441 -20 232 0 414
4 435 10 19 5 48 23 64 40 23 24 30 41 33 89 4 58 3 60 -36 103 l-41 43 -345
3 -346 3 0 2124 0 2125 330 0 c357 0 359 0 409 54 19 20 26 40 29 84 4 52 1
61 -24 91 -51 61 -52 61 -506 61 -384 0 -416 -1 -448 -19z"/>
<path d="M9283 8311 c-101 -46 -103 -199 -3 -252 32 -17 62 -19 367 -19 l333
0 0 -2125 0 -2125 -337 0 c-318 0 -340 -1 -370 -20 -88 -53 -88 -192 1 -246
29 -18 57 -19 461 -19 479 0 463 -2 505 68 20 32 20 66 17 2354 l-2 2321 -25
27 c-50 54 -56 55 -497 55 -379 0 -411 -2 -450 -19z"/>
<path d="M5330 8282 l-40 -40 0 -766 c0 -421 -3 -766 -7 -766 -5 0 -18 15 -29
33 -42 65 -133 164 -200 218 -195 157 -398 240 -647 268 -703 79 -1302 -332
-1459 -999 -29 -126 -36 -413 -13 -552 94 -564 519 -987 1080 -1073 135 -21
408 -16 525 10 254 56 472 175 650 354 180 182 293 389 352 649 22 97 22 97
26 1337 2 840 0 1251 -7 1276 -18 59 -52 82 -126 87 -65 4 -65 4 -105 -36z
m-878 -1327 c222 -46 394 -140 543 -296 194 -203 285 -441 285 -744 0 -312
-101 -566 -306 -769 -147 -146 -327 -239 -534 -277 -94 -17 -309 -15 -405 4
-326 65 -590 273 -735 580 -130 273 -129 654 0 925 145 304 411 512 736 576
96 20 325 20 416 1z"/>
<path d="M7410 7230 c-36 -5 -105 -19 -153 -30 -495 -120 -873 -525 -962
-1035 -24 -132 -24 -376 -2 -501 95 -527 473 -924 997 -1046 124 -28 412 -36
540 -14 228 40 409 122 575 261 72 60 163 157 202 216 l28 43 5 -205 c4 -147
9 -212 19 -232 22 -42 74 -69 132 -69 54 0 89 17 116 59 17 25 18 74 18 708 0
623 -2 688 -19 780 -100 537 -482 935 -1004 1045 -111 24 -384 35 -492 20z
m397 -275 c319 -60 577 -257 727 -553 142 -280 141 -691 -2 -977 -145 -291
-403 -489 -717 -552 -96 -19 -311 -21 -405 -4 -210 39 -393 135 -545 286 -212
212 -316 489 -302 804 8 181 37 303 107 441 147 291 398 484 720 554 89 19
318 20 417 1z"/>
</g>
</svg>
